<?xml version="1.0"?>
<svg xmlns="http://www.w3.org/2000/svg" xmlns:xlink="http://www.w3.org/1999/xlink" version="1.1" viewBox="0 0 192 192" width="50px" height="50px"><g fill="none" fill-rule="nonzero" stroke="none" stroke-width="1" stroke-linecap="butt" stroke-linejoin="miter" stroke-miterlimit="10" stroke-dasharray="" stroke-dashoffset="0" font-family="none" font-weight="none" font-size="none" text-anchor="none" style="mix-blend-mode: normal"><path d="M0,192v-192h192v192z" fill="none"/><g fill="#ffffff"><g id="surface1"><path d="M96,7.68c-27.525,0 -49.92,22.395 -49.92,49.92c0,19.5 11.925,43.575 23.58,63.33c11.64,19.755 23.28,35.01 23.28,35.01l3.06,3.975l3.06,-3.975c0,0 11.64,-15.255 23.28,-35.01c11.655,-19.755 23.58,-43.83 23.58,-63.33c0,-27.525 -22.395,-49.92 -49.92,-49.92zM96,15.36c23.37,0 42.24,18.87 42.24,42.24c0,16.185 -11.115,40.11 -22.5,59.43c-9.87,16.725 -17.265,26.355 -19.74,29.655c-2.475,-3.3 -9.87,-12.93 -19.74,-29.655c-11.385,-19.32 -22.5,-43.245 -22.5,-59.43c0,-23.37 18.87,-42.24 42.24,-42.24zM96,38.4c-10.56,0 -19.2,8.64 -19.2,19.2c0,10.56 8.64,19.2 19.2,19.2c10.56,0 19.2,-8.64 19.2,-19.2c0,-10.56 -8.64,-19.2 -19.2,-19.2zM96,46.08c6.405,0 11.52,5.115 11.52,11.52c0,6.405 -5.115,11.52 -11.52,11.52c-6.405,0 -11.52,-5.115 -11.52,-11.52c0,-6.405 5.115,-11.52 11.52,-11.52zM28.02,122.88l-21.96,61.44h179.88l-21.96,-61.44h-29.385c-1.5,2.64 -3,5.205 -4.5,7.68h28.485l16.44,46.08h-158.04l16.44,-46.08h28.485c-1.5,-2.475 -3,-5.04 -4.5,-7.68z"/></g></g></g></svg>
