<?xml version="1.0"?>
<svg xmlns="http://www.w3.org/2000/svg" xmlns:xlink="http://www.w3.org/1999/xlink" version="1.1" viewBox="0 0 192 192" width="50px" height="50px"><g fill="none" fill-rule="nonzero" stroke="none" stroke-width="1" stroke-linecap="butt" stroke-linejoin="miter" stroke-miterlimit="10" stroke-dasharray="" stroke-dashoffset="0" font-family="none" font-weight="none" font-size="none" text-anchor="none" style="mix-blend-mode: normal"><path d="M0,192v-192h192v192z" fill="none"/><g fill="#ffffff"><g id="surface1"><path d="M34.56,11.52c-6.315,0 -11.52,5.205 -11.52,11.52v10.875c-0.075,0.42 -0.075,0.84 0,1.245v117.795c-0.075,0.42 -0.075,0.84 0,1.245v14.76c0,6.315 5.205,11.52 11.52,11.52h76.8c6.315,0 11.52,-5.205 11.52,-11.52v-14.715c0.075,-0.42 0.075,-0.84 0,-1.245v-117.795c0.075,-0.42 0.075,-0.84 0,-1.245v-10.92c0,-6.315 -5.205,-11.52 -11.52,-11.52zM34.56,19.2h76.8c2.13,0 3.84,1.71 3.84,3.84v7.68h-84.48v-7.68c0,-2.13 1.71,-3.84 3.84,-3.84zM30.72,38.4h84.48v111.36h-84.48zM156.045,47.475l-5.445,5.445c11.235,10.2 18.36,24.825 18.36,41.16c0,15.345 -6.27,29.25 -16.35,39.33l5.385,5.385c11.49,-11.46 18.645,-27.24 18.645,-44.715c0,-18.45 -7.98,-35.01 -20.595,-46.605zM139.755,63.765l-5.475,5.475c7.095,5.97 11.64,14.865 11.64,24.84c0,9 -3.72,17.1 -9.63,23.01l5.43,5.43c7.305,-7.29 11.88,-17.325 11.88,-28.44c0,-12.09 -5.385,-22.92 -13.845,-30.315zM30.72,157.44h84.48v11.52c0,2.13 -1.71,3.84 -3.84,3.84h-76.8c-2.13,0 -3.84,-1.71 -3.84,-3.84zM61.44,161.28c-1.38,-0.015 -2.67,0.705 -3.375,1.905c-0.69,1.2 -0.69,2.67 0,3.87c0.705,1.2 1.995,1.92 3.375,1.905h23.04c1.38,0.015 2.67,-0.705 3.375,-1.905c0.69,-1.2 0.69,-2.67 0,-3.87c-0.705,-1.2 -1.995,-1.92 -3.375,-1.905z"/></g></g></g></svg>
