<?xml version="1.0"?>
<svg xmlns="http://www.w3.org/2000/svg" xmlns:xlink="http://www.w3.org/1999/xlink" version="1.1" viewBox="0 0 192 192" width="50px" height="50px"><g fill="none" fill-rule="nonzero" stroke="none" stroke-width="1" stroke-linecap="butt" stroke-linejoin="miter" stroke-miterlimit="10" stroke-dasharray="" stroke-dashoffset="0" font-family="none" font-weight="none" font-size="none" text-anchor="none" style="mix-blend-mode: normal"><path d="M0,192v-192h192v192z" fill="none"/><g fill="#ffffff"><g id="surface1"><path d="M33.84,15.36c-1.83,0.345 -3.15,1.965 -3.12,3.84v153.6c0,2.115 1.725,3.84 3.84,3.84h23.04v-7.68h-19.2v-145.92h115.2v145.92h-49.92v7.68h53.76c2.115,0 3.84,-1.725 3.84,-3.84v-153.6c0,-2.115 -1.725,-3.84 -3.84,-3.84h-122.88c-0.12,0 -0.24,0 -0.36,0c-0.12,0 -0.24,0 -0.36,0zM57.6,61.44v7.68h76.8v-7.68zM57.6,84.48v7.68h76.8v-7.68zM80.64,115.2c-2.97,0 -5.415,1.65 -7.2,3.96c-2.67,-0.585 -5.55,-0.45 -7.92,1.44c-2.355,1.89 -2.97,4.8 -2.88,7.56c-2.49,1.365 -4.545,3.42 -5.04,6.36c-0.48,2.91 0.825,5.49 2.64,7.56c-1.08,2.73 -1.185,5.775 0.24,8.16c0.255,0.435 0.63,0.72 0.96,1.08v33c-0.015,1.455 0.795,2.79 2.1,3.45c1.29,0.66 2.85,0.54 4.02,-0.33l13.08,-9.84l13.08,9.84c1.17,0.87 2.73,0.99 4.02,0.33c1.305,-0.66 2.115,-1.995 2.1,-3.45v-33c0.33,-0.36 0.705,-0.645 0.96,-1.08c1.665,-2.775 1.305,-5.61 0.24,-8.16c1.815,-2.07 3.12,-4.65 2.64,-7.56c-0.495,-2.94 -2.55,-4.995 -5.04,-6.36c0.09,-2.76 -0.525,-5.67 -2.88,-7.56c-2.37,-1.89 -5.25,-2.025 -7.92,-1.44c-1.74,-2.205 -4.185,-3.96 -7.2,-3.96zM88.32,119.88c0.165,0.12 0.48,0.36 0.36,0.24l-0.12,0.12c-0.075,-0.12 -0.165,-0.24 -0.24,-0.36zM80.64,122.88c1.23,0 1.35,0.225 1.68,1.2c0.195,0.585 0.525,1.125 0.96,1.56c0.195,0.195 0.435,0.45 1.44,0.96c1.005,0.51 1.845,0.48 2.04,0.48c0.705,0.03 1.425,-0.135 2.04,-0.48c0.57,-0.345 1.605,-0.45 2.16,0c0.645,0.525 0.645,0.705 0.24,1.92c-0.15,0.42 -0.24,0.87 -0.24,1.32c0,0.525 0.27,0.6 0.48,1.08c0.135,1.725 1.41,3.165 3.12,3.48c0.6,0.105 1.335,0.84 1.44,1.44c0.105,0.66 -0.27,1.455 -0.84,1.8c-1.11,0.705 -1.8,1.92 -1.8,3.24v1.2c-0.015,0.81 0.24,1.62 0.72,2.28c0.105,0.15 0.27,1.68 0.12,1.92c-0.345,0.57 -1.14,0.945 -1.8,0.84c-1.41,-0.255 -2.85,0.3 -3.72,1.44c0,0.045 0,0.075 0,0.12c-0.135,0.105 -0.075,0.09 -0.24,0.24c-0.045,0.045 -0.075,-0.045 -0.12,0c-0.765,0.72 -1.185,1.71 -1.2,2.76c0,1.02 0,1.035 -0.84,1.32c-0.165,0.075 -0.33,0.15 -0.48,0.24c-0.03,-0.015 0.075,0 -0.12,0c-0.255,0 -1.005,-0.285 -1.56,-0.84c-0.735,-0.72 -1.74,-1.11 -2.76,-1.08h-1.44c-1.02,-0.03 -2.025,0.36 -2.76,1.08c-0.63,0.63 -1.32,0.885 -2.16,0.6c-0.465,-0.255 -0.84,-0.78 -0.84,-1.32c0,-0.735 -0.36,-1.725 -0.84,-2.4c-0.435,-0.615 -0.825,-0.915 -1.08,-1.08c-0.885,-0.885 -2.13,-1.29 -3.36,-1.08c-0.66,0.105 -1.455,-0.27 -1.8,-0.84c-0.45,-0.765 -0.6,-1.05 0,-1.8c0.54,-0.675 0.84,-1.53 0.84,-2.4v-1.2c0,-1.32 -0.69,-2.535 -1.8,-3.24c-0.57,-0.345 -0.945,-1.14 -0.84,-1.8c0.105,-0.6 0.84,-1.335 1.44,-1.44c1.71,-0.315 2.985,-1.755 3.12,-3.48c0.21,-0.48 0.48,-0.555 0.48,-1.08c0,-0.45 -0.09,-0.9 -0.24,-1.32c-0.405,-1.215 -0.405,-1.395 0.24,-1.92c0.555,-0.45 1.59,-0.345 2.16,0c1.185,0.69 2.655,0.69 3.84,0c0.045,0 0.075,0 0.12,0c0.045,-0.045 0.075,-0.075 0.12,-0.12c0.075,-0.03 0.165,-0.075 0.24,-0.12c1.005,-0.42 1.8,-1.245 2.16,-2.28c0.195,-0.6 1.08,-1.2 1.68,-1.2zM69.12,157.68c0.87,1.11 1.92,1.995 3.24,2.52c0.045,0.045 0.075,0.075 0.12,0.12c2.91,0.975 5.715,0.12 8.04,-1.32c0.03,-0.015 0.09,0.015 0.12,0h0.72c1.365,0.795 2.58,1.92 4.32,1.92c0.66,0 1.98,-0.285 3.12,-0.72c0.06,-0.06 0.165,-0.09 0.24,-0.12c0.075,-0.03 0.165,0.045 0.24,0v-0.12c1.185,-0.495 2.13,-1.245 2.88,-2.16v18.84l-9.24,-6.96c-1.35,-1.005 -3.21,-1.005 -4.56,0l-9.24,6.96z"/></g></g></g></svg>
