<?xml version="1.0"?>
<svg xmlns="http://www.w3.org/2000/svg" xmlns:xlink="http://www.w3.org/1999/xlink" version="1.1" viewBox="0 0 192 192" width="50px" height="50px"><g fill="none" fill-rule="nonzero" stroke="none" stroke-width="1" stroke-linecap="butt" stroke-linejoin="miter" stroke-miterlimit="10" stroke-dasharray="" stroke-dashoffset="0" font-family="none" font-weight="none" font-size="none" text-anchor="none" style="mix-blend-mode: normal"><path d="M0,192v-192h192v192z" fill="none"/><g fill="#ffffff"><g id="surface1"><path d="M147.84,-0.36c-1.14,0.03 -2.325,0.105 -3.48,0.24c-4.605,0.525 -9.36,1.785 -13.92,3.48c-9.12,3.39 -17.52,8.52 -22.92,13.92c-5.835,5.835 -8.7,12.96 -8.64,20.28c0.045,6.33 2.415,12.72 5.88,18.84l-8.76,8.88c-1.14,0.93 -1.665,2.415 -1.335,3.855c0.33,1.425 1.455,2.55 2.88,2.88c1.44,0.33 2.925,-0.195 3.855,-1.335l10.8,-10.8c1.275,-1.29 1.47,-3.285 0.48,-4.8c-3.93,-6.075 -6.075,-12.075 -6.12,-17.52c-0.045,-5.445 1.83,-10.35 6.36,-14.88c4.2,-4.2 12.12,-9.075 20.28,-12.12c5.13,-1.905 10.02,-2.625 14.52,-2.76l-14.52,14.4c-0.045,0.075 -0.09,0.165 -0.12,0.24c-3.945,4.5 -4.125,11.355 0.12,15.6l20.4,20.4c0.045,0.045 0.075,0.075 0.12,0.12c4.5,3.945 11.355,4.125 15.6,-0.12l14.52,-14.52c-0.12,4.575 -0.84,9.51 -2.76,14.64c-3.03,8.115 -7.905,15.945 -12.12,20.16c-4.53,4.53 -9.345,6.195 -14.76,6.12c-5.415,-0.075 -11.55,-2.205 -17.88,-6c-1.515,-0.9 -3.435,-0.645 -4.68,0.6l-6.12,6.12c-1.53,1.485 -1.545,3.93 -0.06,5.46c1.485,1.53 3.93,1.545 5.46,0.06l4.32,-4.32c6.24,3.345 12.51,5.67 18.84,5.76c7.26,0.105 14.445,-2.565 20.28,-8.4c5.385,-5.385 10.53,-13.725 13.92,-22.8c3.39,-9.075 5.175,-18.915 2.4,-27.24c-0.435,-1.26 -1.485,-2.19 -2.775,-2.49c-1.305,-0.285 -2.655,0.105 -3.585,1.05l-20.4,20.28c-1.08,1.08 -3.3,1.23 -4.92,0c-0.075,-0.06 -0.165,-0.06 -0.24,-0.12l-20.16,-20.16c-1.14,-1.14 -1.2,-3.525 0.24,-5.16l20.16,-20.16c0.945,-0.93 1.335,-2.28 1.05,-3.585c-0.3,-1.29 -1.23,-2.34 -2.49,-2.775c-3.075,-1.05 -6.315,-1.425 -9.72,-1.32zM12.84,0c-0.81,0.12 -1.575,0.495 -2.16,1.08l-9.6,9.6c-1.245,1.245 -1.5,3.165 -0.6,4.68l16.2,28.08c0.81,1.32 2.31,2.025 3.84,1.8l8.4,-1.32l52.08,52.08l-1.92,1.92c-4.245,4.245 -4.245,11.115 0,15.36l2.64,2.76c3.06,3.06 7.275,3.045 11.04,1.8l6.48,6.36c-0.435,5.175 1.08,10.32 4.8,14.04l46.8,46.92c9.48,9.48 24.84,9.48 34.32,0c0,-0.045 0,-0.075 0,-0.12c9.105,-9.57 9.225,-24.975 0,-34.2l-46.92,-46.8c-3.87,-3.87 -9.015,-5.07 -14.04,-4.8l-6.36,-6.48c1.245,-3.765 1.26,-7.98 -1.8,-11.04l-2.76,-2.64c-2.115,-2.115 -4.89,-3.24 -7.68,-3.24c-2.79,0 -5.565,1.125 -7.68,3.24l-1.92,1.92l-52.08,-52.08l1.32,-8.4c0.225,-1.53 -0.48,-3.03 -1.8,-3.84l-28.08,-16.2c-0.66,-0.375 -1.41,-0.54 -2.16,-0.48c-0.12,0 -0.24,0 -0.36,0zM14.16,8.64l23.16,13.32l-1.2,7.8c-0.165,1.185 0.24,2.385 1.08,3.24l53.4,53.4l-4.2,4.2l-53.4,-53.4c-0.855,-0.84 -2.055,-1.245 -3.24,-1.08l-7.8,1.2l-13.32,-23.16zM105.6,83.64c0.855,0 1.71,0.27 2.28,0.84l2.64,2.76c1.26,1.26 1.245,3.135 0.24,4.32c-1.335,1.545 -1.23,3.87 0.24,5.28l8.76,8.76c0.885,0.885 2.13,1.29 3.36,1.08c3.555,-0.585 7.275,0.315 9.72,2.76l46.8,46.92c6.12,6.12 6.18,16.71 0,23.28c-6.645,6.645 -16.635,6.645 -23.28,0l-46.92,-46.8c-2.55,-2.55 -3.555,-6.165 -2.76,-9.36c0.345,-1.35 -0.075,-2.76 -1.08,-3.72l-8.76,-8.76c-1.41,-1.47 -3.735,-1.575 -5.28,-0.24c-1.185,1.005 -3.06,1.02 -4.32,-0.24l-2.76,-2.64c-1.14,-1.14 -1.14,-3.42 0,-4.56l18.84,-18.84c0.57,-0.57 1.425,-0.84 2.28,-0.84zM67.92,95.16c-0.87,0.12 -1.68,0.555 -2.28,1.2l-18.24,18.24c-2.61,-0.51 -5.175,-0.96 -7.8,-0.96c-21.645,0 -39.24,17.595 -39.24,39.24c0,21.645 17.595,39.12 39.24,39.12c21.645,0 39.12,-17.475 39.12,-39.12c0,-2.805 -0.63,-5.58 -1.32,-8.28l13.2,-13.2c1.53,-1.485 1.545,-3.93 0.06,-5.46c-1.485,-1.53 -3.93,-1.545 -5.46,-0.06l-14.52,14.64c-1.095,1.05 -1.47,2.655 -0.96,4.08c0.96,2.55 1.32,5.115 1.32,8.28c0,17.52 -13.92,31.44 -31.44,31.44c-17.52,0 -31.56,-13.92 -31.56,-31.44c0,-17.52 14.04,-31.56 31.56,-31.56c2.745,0 5.505,0.39 8.28,1.08c1.305,0.285 2.67,-0.12 3.6,-1.08l19.56,-19.56c1.14,-1.095 1.485,-2.79 0.87,-4.245c-0.6,-1.455 -2.055,-2.385 -3.63,-2.355c-0.12,0 -0.24,0 -0.36,0zM121.8,116.28l-5.52,5.52l46.08,46.08l5.52,-5.52zM43.68,130.56c-0.21,0.03 -0.405,0.06 -0.6,0.12l-18,5.04c-1.275,0.36 -2.28,1.365 -2.64,2.64l-5.04,18c-0.42,1.365 -0.045,2.835 0.96,3.84l13.44,13.44c0.975,0.96 2.4,1.335 3.72,0.96l18.48,-5.04c1.35,-0.345 2.415,-1.41 2.76,-2.76l4.56,-18c0.375,-1.32 0,-2.745 -0.96,-3.72l-13.44,-13.44c-0.855,-0.84 -2.055,-1.245 -3.24,-1.08zM42.96,138.72l10.32,10.32l-3.48,13.8l-14.04,3.72l-10.32,-10.32l3.72,-13.8z"/></g></g></g></svg>
