<?xml version="1.0"?>
<svg xmlns="http://www.w3.org/2000/svg" xmlns:xlink="http://www.w3.org/1999/xlink" version="1.1" viewBox="0 0 192 192" width="50px" height="50px"><g fill="none" fill-rule="nonzero" stroke="none" stroke-width="1" stroke-linecap="butt" stroke-linejoin="miter" stroke-miterlimit="10" stroke-dasharray="" stroke-dashoffset="0" font-family="none" font-weight="none" font-size="none" text-anchor="none" style="mix-blend-mode: normal"><path d="M0,192v-192h192v192z" fill="none"/><g fill="#ffffff"><g id="surface1"><path d="M142.305,49.845c-3.12,-0.12 -6.015,1.665 -7.29,4.515c-1.29,2.85 -0.735,6.18 1.425,8.46l23.595,25.5h-148.515c-2.775,-0.045 -5.34,1.41 -6.735,3.81c-1.41,2.385 -1.41,5.355 0,7.74c1.395,2.4 3.96,3.855 6.735,3.81h148.515l-23.595,25.5c-1.92,2.01 -2.595,4.89 -1.785,7.545c0.81,2.655 2.985,4.665 5.685,5.265c2.715,0.6 5.535,-0.315 7.38,-2.37l40.335,-43.62l-40.335,-43.62c-1.38,-1.53 -3.345,-2.46 -5.415,-2.535z"/></g></g></g></svg>
