<?xml version="1.0" encoding="utf-8"?>
<!-- Generator: Adobe Illustrator 23.0.2, SVG Export Plug-In . SVG Version: 6.00 Build 0)  -->
<svg version="1.1" id="Layer_1" xmlns="http://www.w3.org/2000/svg" xmlns:xlink="http://www.w3.org/1999/xlink" x="0px" y="0px"
	 viewBox="0 0 50 50" style="enable-background:new 0 0 50 50;" xml:space="preserve">
<style type="text/css">
	.st0{fill:none;}
	.st1{fill:#A1A1B4;}
</style>
<g>
	<path class="st0" d="M0,50V0h50v50H0z"/>
	<g>
		<g id="surface1">
			<path class="st1" d="M37.1,13c-0.8,0-1.6,0.4-1.9,1.2c-0.3,0.7-0.2,1.6,0.4,2.2l6.1,6.6H3c-0.7,0-1.4,0.4-1.8,1
				c-0.4,0.6-0.4,1.4,0,2c0.4,0.6,1,1,1.8,1h38.7l-6.1,6.6c-0.5,0.5-0.7,1.3-0.5,2c0.2,0.7,0.8,1.2,1.5,1.4c0.7,0.2,1.4-0.1,1.9-0.6
				L49,25L38.5,13.6C38.1,13.2,37.6,13,37.1,13z"/>
		</g>
	</g>
</g>
</svg>
